<?xml version="1.0" encoding="utf-8"?>
<!-- Generator: Adobe Illustrator 26.5.0, SVG Export Plug-In . SVG Version: 6.00 Build 0)  -->
<svg version="1.1" id="layer1" xmlns="http://www.w3.org/2000/svg" xmlns:xlink="http://www.w3.org/1999/xlink" x="0px" y="0px"
	 width="319px" height="64px" viewBox="0 0 319 64" enable-background="new 0 0 319 64" xml:space="preserve">
<g>
	<g>
		<g>
			<g>
				<path fill="#1A1A1A" d="M257.4,60c-1.1,0.6-3,0.7-4.3,0.7c-2,0-2.3-0.5-2.3-2.7c0-0.3,0-0.7,0-1.1c2.4-0.3,4.5-1.2,6.3-1.9
					c0.4-0.2,0.9,0,0.9-0.5c0-0.7-1.3-2.1-2.6-2.1c-0.4,0-0.8,0.1-0.9,0.3l0,0.1c0.4,0,0.8,0.4,0.8,0.6c0,0.3-0.2,0.5-0.7,0.9
					c-0.8,0.6-2.3,1.5-3.8,2.1c0-0.6,0.1-2.9,0.4-3.5c0.1-0.2,0.3-0.4,0.3-0.7c0-0.8-1.5-1.6-2.6-1.6c-0.6,0-1.1,0.4-1.2,0.7l0,0
					c0.3,0,0.6,0.1,0.9,0.2c0.3,0.2,0.4,0.5,0.4,1.3c0,0.6-0.1,3.2-0.1,3.8c0,0.7,0,1.6,0,2.1c0.2,2.9,1.7,3.9,4.1,3.9
					c2.9,0,6.3,0,6.3-1.3C259.4,60.6,258,60,257.4,60z"/>
				<path fill="#1A1A1A" d="M260.5,51c0-0.9-1-1.5-2.5-1.9l-0.1,0.2c0.7,0.4,1.2,1.4,1.4,1.9c0.1,0.4,0.4,0.5,0.6,0.5
					C260.2,51.8,260.5,51.5,260.5,51z"/>
				<path fill="#1A1A1A" d="M257.1,52c0.1,0.4,0.4,0.5,0.6,0.5c0.4,0,0.6-0.3,0.6-0.7c0-0.8-1.1-1.6-2.4-1.8l-0.1,0.2
					C256.4,50.5,257,51.5,257.1,52z"/>
				<path fill="#1A1A1A" d="M272.2,55.7L272.2,55.7c-0.3,0-0.9,0.2-1.9,0.2h-6.9c-1.1,0-2.4,0-2.6-1.1h-0.1
					c-0.3,0.3-0.4,0.6-0.4,1.1c0,0.8,1.3,2.2,2.3,2.2c0.3,0,0.4-0.1,0.7-0.2c0.4-0.1,0.7-0.2,1.1-0.3c0.6-0.1,2.8-0.2,3.9-0.2h3.7
					c0.4,0,1,0,1.3,0c0.8,0,1.4-0.2,1.4-0.7C274.7,56.1,273.2,55.8,272.2,55.7z"/>
				<path fill="#1A1A1A" d="M281.1,52.6c1.1,0,3.2-0.5,4.7-0.5c0.9,0,1.9-0.1,1.9-0.6c0-0.7-1.2-1.3-2.2-1.4c-0.9,0.7-3.6,1-4.6,1
					c-0.8,0-1.5-0.1-2-0.4l-0.1,0.1C278.9,51.7,279.9,52.6,281.1,52.6z"/>
				<path fill="#1A1A1A" d="M287.8,53.9c-0.4,0.4-0.9,0.5-1.4,0.6c-1.4,0.2-5.7,0.7-7.1,0.7c-1.3,0-2-0.3-2.3-1.1l0,0
					c-0.2,0.1-0.4,0.5-0.4,0.8c0,1,1.2,2.2,1.8,2.2c0.7,0,0.9-0.3,1.5-0.5c0.7-0.2,1.8-0.3,2.6-0.4c0.1,0.1,0.2,0.2,0.2,0.5
					c0,1.2-0.9,5.1-3.9,7.3l0.2,0.2c3.7-1.4,5.2-3.8,6-6.8c0.1-0.2,0.4-0.3,0.4-0.6c0-0.2-0.3-0.5-0.6-0.7c0.4,0,0.9,0,1.3,0
					c0.4,0,0.7,0,1,0c0.8,0,1.5,0.1,2.2,0.1c0.7,0,1.1-0.1,1.1-0.6C290.2,54.7,289.3,54.3,287.8,53.9z"/>
				<path fill="#1A1A1A" d="M301.7,52.1c-0.2,0-0.4,0.3-0.6,0.5c-0.2,0.2-0.3,0.3-0.6,0.4c-0.4,0.1-1.7,0.2-2.6,0.2
					c-0.1,0-0.2,0-0.3-0.1c0.2-0.3,0.5-0.9,0.7-1.2c0.1-0.1,0.4-0.5,0.5-0.5c0.2-0.1,0.3-0.2,0.3-0.4c0-0.4-1.8-1.4-2.8-1.4
					c-0.7,0-1.2,0.3-1.3,0.7c1,0,1,0.5,1,0.7c0,0.9-1.7,4.8-4.3,7l0.2,0.2c2.2-1.1,3.9-2.5,4.8-3.8c0.2,0.1,0.4,0.2,0.6,0.2
					c0.5,0,2.9-0.6,3.3-0.6c0.1,0,0.1,0,0.1,0.1c0,0,0,0.1,0,0.2c-1.3,3.9-3.7,7.1-8.2,9.3l0.1,0.2c5.6-1.5,8.5-4.4,10.4-9
					c0.1-0.2,0.3-0.5,0.4-0.6c0.4-0.2,0.5-0.3,0.5-0.5C303.9,53.3,302.3,52.1,301.7,52.1z"/>
				<path fill="#1A1A1A" d="M317,59.7c-0.9-0.8-2.6-1.7-4-2.1c1.1-1.4,2.2-3.3,2.7-4.4c0.1-0.2,0.2-0.3,0.4-0.4
					c0.3-0.1,0.5-0.2,0.5-0.5c0-0.4-1.7-1.7-2.2-1.7c-0.3,0-0.3,0.1-0.7,0.4c-0.2,0.2-0.3,0.2-0.6,0.3c-1.1,0.1-3,0.3-4.2,0.3
					c-0.7,0-1.9,0-2.1-1.2c-0.1,0-0.6,0.5-0.6,0.9c0,1,1.1,2.1,1.9,2.1c0.2,0,0.4-0.2,0.6-0.3c0.2-0.1,0.3-0.2,0.7-0.3
					c1.3-0.3,3.2-0.6,3.5-0.6c0.1,0,0.2,0,0.2,0.1c0,0,0,0,0,0.1c-1,3.7-4.3,7.9-8.6,10.6l0.1,0.2c3.3-1.1,6.1-3.2,7.9-5.3
					c1.5,1,2.5,3.1,2.8,3.8c0.4,0.9,0.7,1.3,1.3,1.3c0.9,0,1.4-0.7,1.4-1.4C318.1,60.9,317.7,60.3,317,59.7z"/>
				<path fill="#1A1A1A" d="M197.3,56.1h2.7c0.4,0,0.6-0.1,0.7-0.2l-1.4-1.1l-0.8,1.1h-1.2v-3h2.3c0.4,0,0.6-0.1,0.7-0.3l-1.4-1.1
					l-0.8,1.1h-0.8v-2.4c0.4,0,0.5-0.2,0.6-0.3l-2-0.2v2.9h-1.3c0.2-0.5,0.3-1,0.5-1.5c0.4,0,0.5-0.1,0.5-0.3l-1.9-0.4
					c-0.1,1.8-0.4,3.7-0.8,4.8l0.2,0.1c0.6-0.6,1.1-1.5,1.5-2.5h1.4v3h-3.2l0,0.2c-0.3-0.3-0.8-0.6-1.6-0.8v-1.9h1.5
					c0.4,0,0.5-0.1,0.7-0.2l-1.2-1.1l-0.7,1H191v-2.9c0.4,0,0.5-0.2,0.6-0.3l-2-0.2V53h-2.1l0.1,0.3h1.9c-0.3,2.1-1,4.3-2,5.9
					l0.2,0.2c0.8-0.8,1.5-1.6,2-2.6v5.9c1.3,0,1.4-0.4,1.4-0.4v-6.8c0.4,0.6,0.7,1.4,0.8,2c0.2,0.2,0.4,0.3,0.5,0.3
					c0.4,0,0.7-0.3,0.7-0.8c0-0.2-0.1-0.5-0.3-0.8h2.4c-0.6,2-1.7,4-3.2,5.4l0.2,0.2c1.6-0.9,2.9-2.2,3.8-3.6v4.5
					c1.2,0,1.4-0.5,1.4-0.5v-5.3c0.4,1.9,1.2,3.9,2.3,5c0.1-0.6,0.7-1.2,1.3-1.6l0-0.1C199.3,59.4,197.9,57.9,197.3,56.1z"/>
				<path fill="#1A1A1A" d="M214.6,58.7l-0.1,0c-0.2,0.6-0.6,1.4-0.8,1.7c-0.1,0.1-0.1,0.2-0.2,0.2c-0.1,0-0.2,0-0.3-0.1
					c-1.9-1.5-2.6-4.3-2.8-7.4h3.7c0.4,0,0.6-0.1,0.7-0.2l-1.5-1c0.4,0,0.7-0.3,0.7-0.7c0-0.5-0.6-1.2-2.5-1.1l-0.1,0.1
					c0.5,0.3,1.1,1,1.4,1.5c0.1,0.1,0.2,0.1,0.3,0.2l-0.8,1h-1.8c0-0.8,0-1.7,0-2.6c0.4-0.1,0.5-0.2,0.5-0.3l-2.1-0.2
					c0,1.1,0,2.1,0.1,3.1h-7.1l0.1,0.3h7c0.3,3.7,1.1,6.8,3.4,8.9c0.4,0.4,1.1,0.8,1.7,0.8c0.4,0,0.8-0.2,0.8-0.6
					c0-0.3-0.1-0.6-0.5-1.1L214.6,58.7z"/>
				<path fill="#1A1A1A" d="M206.2,60.2v-4.1h2c0.4,0,0.6-0.1,0.7-0.2l-1.5-1.1l-0.8,1h-4.5l0.1,0.3h2.5v4.2
					c-1.3,0.1-2.3,0.2-2.9,0.2l0.9,1.6c0.1,0,0.3-0.1,0.4-0.3c3.1-0.7,5.1-1.3,6.5-1.7l0-0.2C208.3,60,207.2,60.1,206.2,60.2z"/>
				<path fill="#1A1A1A" d="M223.4,50.2l-2.2-0.6c-0.9,2-3.1,4.6-5.5,6.1l0.1,0.2c2.9-1.1,5.5-3.4,6.7-5.2c1.1,2.1,3,3.8,5.3,4.9
					c0.1-0.6,0.5-1.2,1.1-1.4l0-0.2c-2.6-0.7-4.8-2-6.1-3.4C223.2,50.4,223.4,50.4,223.4,50.2z"/>
				<path fill="#1A1A1A" d="M225.7,54.7l-1.6-1.1l-0.8,1.1h-4.7l0.1,0.3h6.3C225.4,54.9,225.6,54.9,225.7,54.7z"/>
				<path fill="#1A1A1A" d="M225.9,57.1h-9.6l0.1,0.3h3.5c-0.3,1.1-0.7,2.4-1.2,3.5c-0.8,0-1.6,0-2.1,0l0.9,1.7
					c0.2,0,0.3-0.1,0.4-0.3c3.3-0.5,5.7-0.9,7.3-1.2c0.3,0.4,0.5,0.9,0.6,1.4c0.2,0.2,0.4,0.3,0.7,0.3c0.5,0,0.8-0.4,0.8-1
					c0-0.9-0.9-2.2-3.9-3l-0.1,0.1c0.6,0.5,1.2,1.1,1.7,1.8c-2.2,0.1-4.2,0.1-5.9,0.2c0.9-0.9,1.7-2.1,2.2-2.9c0.3,0,0.5,0,0.5-0.2
					l-1.2-0.4h6.9c0.4,0,0.6-0.1,0.7-0.2l-1.7-1.2L225.9,57.1z"/>
				<path fill="#1A1A1A" d="M235.4,58.6c0.4,0,0.8-0.4,0.8-0.8c0-0.6-0.6-1.4-2.5-1.7c0.8-0.9,1.5-1.9,2-2.8c0.3,0,0.5-0.1,0.6-0.2
					l-1.4-1.4l-0.9,0.8h-0.4v-2.4c0.4-0.1,0.6-0.2,0.6-0.4l-2.1-0.2v3h-2.1l0.1,0.3h4c-0.7,2-2.5,4.5-4.3,5.8l0.1,0.1
					c0.7-0.4,1.5-0.8,2.1-1.4v5.2h0.3c0.7,0,1.2-0.4,1.2-0.5v-5.8c0.6,0.5,1.1,1.3,1.2,2C235.1,58.5,235.2,58.6,235.4,58.6z"/>
				<path fill="#1A1A1A" d="M240.9,61.7h-1V55h2.4c0.4,0,0.6-0.1,0.7-0.2l-1.5-1.1l-0.8,1.1h-0.8v-4.5c0.4-0.1,0.6-0.2,0.6-0.4
					l-2.1-0.2v5.1h-2.6l0.1,0.3h2.5v6.7h-3.4l0.1,0.3h7.6c0.4,0,0.6-0.1,0.7-0.2l-1.5-1.2L240.9,61.7z"/>
			</g>
			<g>
				<path fill="#1A1A1A" d="M81.7,39.9c1.2-0.2,2.1-0.4,2.5-0.7c0.8-0.5,1.4-1.6,1.9-3.1l6.7-24.4c0.2-0.7,0.3-1.3,0.4-1.8
					c0.1-0.5,0.1-0.9,0.1-1.1c0-1-0.3-1.6-0.8-1.8C92,6.5,91,6.4,89.4,6.3V4.9H105c4.1,0,8.3,0.6,10.5,1.9c2.2,1.3,3.4,3.4,3.4,6.2
					c0,2.8-1.4,5-4.1,6.7c-1.5,0.9-3.5,1.7-6,2.3c2.3,0.8,3.9,1.6,4.9,2.4c1.6,1.4,2.4,3.2,2.4,5.6c0,3-1.2,5.6-3.7,7.9
					c-2.5,2.3-6.6,3.4-12.3,3.4H81.7V39.9z M95,39.4c0.4,0.1,3,0.2,3.9,0.2c3.5,0,5.9-1.6,7.5-4.8c0.9-1.9,1.4-3.9,1.4-5.9
					c0-2.5-0.9-4.2-2.6-5.1c-1-0.5-4.8-0.8-7.5-1l-3.6,13.3c-0.1,0.2-0.1,0.5-0.2,0.7c0,0.3-0.1,0.6-0.1,0.9
					C93.9,38.6,94.3,39.1,95,39.4 M105.5,20.6c1-0.2,1.9-0.7,2.7-1.4c1-0.9,1.8-2.2,2.3-3.9c0.3-1.1,0.5-2.1,0.5-3.2
					c0-1.6-0.3-2.9-1-3.9c-0.7-1-3.1-1.5-5.1-1.5c-0.8,0-2.2,0.2-2.5,0.6c-0.3,0.4-0.6,1-0.8,1.8l-3.3,12.2
					C100.8,21,104.5,20.8,105.5,20.6"/>
				<path fill="#1A1A1A" d="M189.9,39.9c1.7,0,2.8-0.2,3.4-0.5c1-0.5,1.7-1.6,2.2-3.4l8-29.2c-2.7,0-5,0.6-6.9,2
					c-1.9,1.3-3.5,3.3-4.8,5.8l-1.4-0.4l2.1-9.3h29.9l-2,10.5l-1.4-0.1c-0.1-3.5-1.1-6-3-7.3c-1-0.7-2.6-1.1-4.6-1.2l-7.6,27.9
					l-0.5,1.9c-0.1,0.2-0.1,0.5-0.1,0.6c0,0.2,0,0.3,0,0.5c0,0.9,0.3,1.5,0.9,1.8c0.6,0.2,1.8,0.4,3.7,0.5v1.4h-18V39.9z"/>
				<path fill="#1A1A1A" d="M218.9,39.9c1.3-0.2,2.2-0.5,2.9-0.9c0.6-0.5,1.1-1.5,1.5-2.9l6.7-24.4c0.2-0.6,0.3-1.2,0.4-1.7
					c0.1-0.5,0.2-0.9,0.2-1.3c0-0.9-0.2-1.5-0.7-1.7c-0.5-0.2-1.6-0.4-3.2-0.6V4.9h29.3l-2.3,10.3l-1.5-0.2c0-2.6-0.5-4.5-1.3-5.6
					c-1.4-1.9-4.2-2.8-8.4-2.8c-1.4,0-2.4,0.2-2.8,0.5c-0.4,0.3-0.8,1-1,2l-3.2,12.1c3.8-0.1,6.3-0.4,7.4-0.9
					c1.1-0.5,2.4-2.1,3.7-4.8l1.5,0.2l-4,14.9l-1.5-0.3c0.1-0.5,0.1-1,0.1-1.3c0-0.4,0-0.7,0-0.9c0-1.9-0.5-3.3-1.6-4
					c-1.1-0.7-3.1-1.1-6.2-1.1l-3.6,13.3c-0.1,0.3-0.2,0.6-0.2,0.9c0,0.3-0.1,0.5-0.1,0.7c0,0.5,0.2,0.9,0.6,1.2
					c0.4,0.3,1.2,0.5,2.4,0.5c3.3,0,6.1-0.5,8.4-1.4c3.6-1.4,6.4-4,8.5-7.7l1.3,0.2l-3.2,10.6h-30.1V39.9z"/>
				<path fill="#1A1A1A" d="M285.1,5.4c2,0.5,3.2,0.8,3.5,0.8c0.6,0,1-0.1,1.3-0.4c0.3-0.3,0.6-0.7,0.8-1.1h1.6l-2.8,12.3l-1.7-0.3
					c0.1-0.7,0.1-1.2,0.1-1.3c0-0.1,0-0.3,0-0.6c0-2.8-0.7-4.8-2-6.2c-1.3-1.4-3.1-2-5.1-2c-4.2,0-7.9,2.7-11,8.1
					c-2.8,4.8-4.2,9.8-4.2,14.8c0,3.7,0.9,6.2,2.6,7.5c1.7,1.3,3.6,2,5.6,2c2.7,0,5.2-0.8,7.5-2.5c1.3-0.9,2.6-2.2,3.8-3.7l1.6,1.2
					c-1.9,2.7-4.1,4.7-6.7,6c-2.6,1.3-5.2,2-7.9,2c-4.4,0-8-1.2-10.8-3.7c-2.8-2.5-4.3-5.8-4.3-9.9c0-6.3,2.2-11.9,6.5-16.5
					c4.4-4.7,9.5-7,15.5-7C281.2,4.6,283.2,4.9,285.1,5.4"/>
				<path fill="#1A1A1A" d="M290.5,41.7l2-11.8L294,30c0.1,1.7,0.3,2.9,0.5,3.7c0.3,1.3,0.9,2.4,1.8,3.4c0.8,0.9,1.7,1.6,2.8,2.1
					c1,0.5,2.2,0.7,3.4,0.7c2.2,0,3.9-0.7,5.1-2c1.2-1.3,1.8-2.9,1.8-4.7c0-2.2-2.2-5-6.7-8.4c-4.4-3.5-6.7-6.8-6.7-9.8
					c0-2.8,1-5.2,2.9-7.2c2-2,4.7-3,8.2-3c1,0,2,0.1,3,0.3c0.7,0.1,1.3,0.3,1.8,0.4l1.4,0.4c0.3,0.1,0.6,0.2,0.9,0.2
					c0.3,0.1,0.6,0.1,0.9,0.1c0.6,0,1.1-0.1,1.5-0.4c0.3-0.3,0.6-0.6,0.9-0.9h1.6l-2.2,10.6l-1.4-0.2l-0.2-1.7
					c-0.2-1.6-0.8-3-1.6-4.2c-1.3-1.8-3.1-2.8-5.6-2.8c-2.1,0-3.6,0.7-4.6,2.2c-0.6,1-1,2-1,3.2c0,1.2,0.3,2.3,1,3.2
					c0.4,0.5,0.9,1.1,1.7,1.7l4.7,3.7c1.7,1.3,3.1,2.8,4.2,4.5c1.2,1.7,1.8,3.6,1.8,5.8c0,2.8-1.1,5.3-3.4,7.5
					c-2.3,2.2-5.4,3.4-9.3,3.4c-1,0-2-0.1-3-0.3c-1-0.2-2-0.4-3-0.8l-1.4-0.5c-0.5-0.2-0.8-0.3-1-0.3c-0.2,0-0.4-0.1-0.6-0.1
					c-0.6,0-1,0.1-1.3,0.4c-0.3,0.3-0.5,0.8-0.9,1.5H290.5z"/>
				<path fill="#1A1A1A" d="M176.6,4.4c0,0-13.1-0.1-21.3,16.8c0,0-7.1,15.1,5.9,19.7c0,0,10.7,4.6,18.8-9.4l-0.8-0.4
					c0,0-6.7,9.1-14,6.2c0,0-5.5-1.6-3.1-11.4c0,0,20.9-1.7,23.1-14.2C185.5,11.6,186.8,4.2,176.6,4.4z M175,17.5
					c-4.3,5.9-11.9,5.3-11.9,5.3c0.7-4.2,4.3-10.3,4.3-10.3c4.3-6.7,8.5-5.1,8.5-5.1C180.5,9.6,175,17.5,175,17.5z"/>
				<path fill="#1A1A1A" d="M145,4.4c0,0-13.1-0.1-21.3,16.8c0,0-7.1,15.1,5.9,19.7c0,0,10.7,4.6,18.8-9.4l-0.8-0.4
					c0,0-6.7,9.1-14,6.2c0,0-5.5-1.6-3.1-11.4c0,0,20.9-1.7,23.1-14.2C153.9,11.6,155.2,4.2,145,4.4z M143.4,17.5
					c-4.3,5.9-11.9,5.3-11.9,5.3c0.7-4.2,4.3-10.3,4.3-10.3c4.3-6.7,8.5-5.1,8.5-5.1C148.9,9.6,143.4,17.5,143.4,17.5z"/>
				<g>
					<path fill="#1A1A1A" d="M61.6,21.4c0-0.1,0-0.1,0-0.2c17.2-1.2,11.5-8.4,8.8-11c-5.9-5.2-15.8-9-27.4-9.8
						c-3.7-0.5-7.4-0.3-9.8,0c-7.8,0.5-14.8,2.4-20.4,5.1h11.2c2.6-2.3,5.7-3.9,9.2-4.7c2.2-0.3,5.6-0.5,9-0.1
						c5.4,1.1,10,4.3,13,8.6C58,13.6,58.7,19.8,42.7,21h-4.4v0.4h4.4c16,1.1,15.3,7.4,12.7,11.7c-3,4.3-7.6,7.5-12.9,8.6
						c-3.5,0.4-7,0.2-9.2-0.1c-3.3-0.8-6.4-2.3-8.9-4.5H13.3c5.5,2.6,12.5,4.4,20.1,4.9c1.3,0.2,3,0.3,5,0.3c1.4,0,3-0.1,4.5-0.3
						c12.8-0.9,23.5-5.3,29.1-11.4C74.5,27.4,75.8,22.3,61.6,21.4z"/>
					<path fill="#1A1A1A" d="M21.1,8.7H7.4c-1.6,1.2-2.9,2.5-4,3.8h15.5C19.5,11.1,20.2,9.9,21.1,8.7z"/>
					<path fill="#1A1A1A" d="M17.7,15.8H1.2c-0.6,1.2-1,2.5-1.1,3.8h17C17.1,18.3,17.4,17,17.7,15.8z"/>
					<path fill="#1A1A1A" d="M19,30H3.5c1.1,1.4,2.5,2.6,4.1,3.8h13.6C20.4,32.6,19.6,31.4,19,30z"/>
					<path fill="#1A1A1A" d="M17.1,22.9H0.1c0.2,1.3,0.6,2.6,1.2,3.8h16.4C17.4,25.5,17.2,24.2,17.1,22.9z"/>
				</g>
			</g>
		</g>
	</g>
	<g>
		<path fill="#E8CDBF" d="M18.9,12.5H3.4c-0.9,1.1-1.6,2.2-2.1,3.3h16.4C18,14.7,18.4,13.6,18.9,12.5z"/>
		<path fill="#DDB5A0" d="M17,21.2c0-0.5,0-1,0.1-1.5h-17C0,20.1,0,20.6,0,21.2c0,0.6,0,1.2,0.1,1.8h16.9C17,22.3,17,21.7,17,21.2z"
			/>
		<path fill="#C78360" d="M21.2,33.8H7.7c1.7,1.2,3.5,2.3,5.6,3.3h11.1C23.2,36.1,22.2,35,21.2,33.8z"/>
		<path fill="#F4E6DF" d="M24.1,5.4H12.9c-2,1-3.9,2.1-5.5,3.3h13.7C22,7.5,23,6.4,24.1,5.4z"/>
		<path fill="#D29C80" d="M17.7,26.7H1.3C1.9,27.9,2.6,29,3.5,30H19C18.5,29,18.1,27.9,17.7,26.7z"/>
	</g>
</g>
</svg>
